<?xml version="1.0" encoding="UTF-8" standalone="no"?>
<!DOCTYPE svg PUBLIC "-//W3C//DTD SVG 1.1//EN"
 "http://www.w3.org/Graphics/SVG/1.1/DTD/svg11.dtd">
<!-- Generated by graphviz version 2.47.3 (20210619.1520)
 -->
<!-- Title: dependencies Pages: 1 -->
<svg width="1879pt" height="247pt"
 viewBox="0.00 0.00 1879.00 246.80" xmlns="http://www.w3.org/2000/svg" xmlns:xlink="http://www.w3.org/1999/xlink">
<g id="graph0" class="graph" transform="scale(1 1) rotate(0) translate(4 242.8)">
<title>dependencies</title>
<polygon fill="white" stroke="transparent" points="-4,4 -4,-242.8 1875,-242.8 1875,4 -4,4"/>
<text text-anchor="middle" x="935.5" y="-8.2" font-family="sans-serif" font-size="14.00">dependencies</text>
<g id="clust1" class="cluster">
<title>cluster_AppModule</title>
<polygon fill="none" stroke="black" stroke-dasharray="1,5" points="8,-32.8 8,-230.8 1863,-230.8 1863,-32.8 8,-32.8"/>
</g>
<g id="clust15" class="cluster">
<title>cluster_AppModule_bootstrap</title>
<polygon fill="none" stroke="black" points="854,-170.8 854,-222.8 978,-222.8 978,-170.8 854,-170.8"/>
</g>
<g id="clust13" class="cluster">
<title>cluster_AppModule_imports</title>
<polygon fill="none" stroke="black" points="1540,-40.8 1540,-92.8 1855,-92.8 1855,-40.8 1540,-40.8"/>
</g>
<g id="clust2" class="cluster">
<title>cluster_AppModule_declarations</title>
<polygon fill="none" stroke="black" points="16,-40.8 16,-92.8 1532,-92.8 1532,-40.8 16,-40.8"/>
</g>
<!-- AddUserComponent -->
<g id="node1" class="node">
<title>AddUserComponent</title>
<polygon fill="#ffffb3" stroke="black" points="1523.87,-84.8 1392.13,-84.8 1392.13,-48.8 1523.87,-48.8 1523.87,-84.8"/>
<text text-anchor="middle" x="1458" y="-62.6" font-family="Times,serif" font-size="14.00">AddUserComponent</text>
</g>
<!-- AppModule -->
<g id="node11" class="node">
<title>AppModule</title>
<polygon fill="#8dd3c7" stroke="black" points="957.66,-149.8 954.66,-153.8 933.66,-153.8 930.66,-149.8 874.34,-149.8 874.34,-113.8 957.66,-113.8 957.66,-149.8"/>
<text text-anchor="middle" x="916" y="-127.6" font-family="Times,serif" font-size="14.00">AppModule</text>
</g>
<!-- AddUserComponent&#45;&gt;AppModule -->
<g id="edge1" class="edge">
<title>AddUserComponent&#45;&gt;AppModule</title>
<path fill="none" stroke="black" d="M1458,-84.91C1458,-104.14 1458,-131.8 1458,-131.8 1458,-131.8 968.08,-131.8 968.08,-131.8"/>
<polygon fill="black" stroke="black" points="968.08,-128.3 958.08,-131.8 968.08,-135.3 968.08,-128.3"/>
</g>
<!-- AdminDashboardComponent -->
<g id="node2" class="node">
<title>AdminDashboardComponent</title>
<polygon fill="#ffffb3" stroke="black" points="1374.36,-84.8 1193.64,-84.8 1193.64,-48.8 1374.36,-48.8 1374.36,-84.8"/>
<text text-anchor="middle" x="1284" y="-62.6" font-family="Times,serif" font-size="14.00">AdminDashboardComponent</text>
</g>
<!-- AdminDashboardComponent&#45;&gt;AppModule -->
<g id="edge2" class="edge">
<title>AdminDashboardComponent&#45;&gt;AppModule</title>
<path fill="none" stroke="black" d="M1284,-84.82C1284,-102.17 1284,-125.8 1284,-125.8 1284,-125.8 967.86,-125.8 967.86,-125.8"/>
<polygon fill="black" stroke="black" points="967.86,-122.3 957.86,-125.8 967.86,-129.3 967.86,-122.3"/>
</g>
<!-- AppComponent -->
<g id="node3" class="node">
<title>AppComponent</title>
<polygon fill="#ffffb3" stroke="black" points="1175.94,-84.8 1070.06,-84.8 1070.06,-48.8 1175.94,-48.8 1175.94,-84.8"/>
<text text-anchor="middle" x="1123" y="-62.6" font-family="Times,serif" font-size="14.00">AppComponent</text>
</g>
<!-- AppComponent&#45;&gt;AppModule -->
<g id="edge3" class="edge">
<title>AppComponent&#45;&gt;AppModule</title>
<path fill="none" stroke="black" d="M1123,-85.04C1123,-100.37 1123,-119.8 1123,-119.8 1123,-119.8 967.89,-119.8 967.89,-119.8"/>
<polygon fill="black" stroke="black" points="967.89,-116.3 957.89,-119.8 967.89,-123.3 967.89,-116.3"/>
</g>
<!-- EditUserComponent -->
<g id="node4" class="node">
<title>EditUserComponent</title>
<polygon fill="#ffffb3" stroke="black" points="1052.59,-84.8 921.41,-84.8 921.41,-48.8 1052.59,-48.8 1052.59,-84.8"/>
<text text-anchor="middle" x="987" y="-62.6" font-family="Times,serif" font-size="14.00">EditUserComponent</text>
</g>
<!-- EditUserComponent&#45;&gt;AppModule -->
<g id="edge4" class="edge">
<title>EditUserComponent&#45;&gt;AppModule</title>
<path fill="none" stroke="black" d="M939.64,-84.91C939.64,-84.91 939.64,-103.79 939.64,-103.79"/>
<polygon fill="black" stroke="black" points="936.14,-103.79 939.64,-113.79 943.14,-103.79 936.14,-103.79"/>
</g>
<!-- FooterComponent -->
<g id="node5" class="node">
<title>FooterComponent</title>
<polygon fill="#ffffb3" stroke="black" points="903.88,-84.8 786.12,-84.8 786.12,-48.8 903.88,-48.8 903.88,-84.8"/>
<text text-anchor="middle" x="845" y="-62.6" font-family="Times,serif" font-size="14.00">FooterComponent</text>
</g>
<!-- FooterComponent&#45;&gt;AppModule -->
<g id="edge5" class="edge">
<title>FooterComponent&#45;&gt;AppModule</title>
<path fill="none" stroke="black" d="M889.06,-84.91C889.06,-84.91 889.06,-103.79 889.06,-103.79"/>
<polygon fill="black" stroke="black" points="885.56,-103.79 889.06,-113.79 892.56,-103.79 885.56,-103.79"/>
</g>
<!-- HeaderComponent -->
<g id="node6" class="node">
<title>HeaderComponent</title>
<polygon fill="#ffffb3" stroke="black" points="767.74,-84.8 646.26,-84.8 646.26,-48.8 767.74,-48.8 767.74,-84.8"/>
<text text-anchor="middle" x="707" y="-62.6" font-family="Times,serif" font-size="14.00">HeaderComponent</text>
</g>
<!-- HeaderComponent&#45;&gt;AppModule -->
<g id="edge6" class="edge">
<title>HeaderComponent&#45;&gt;AppModule</title>
<path fill="none" stroke="black" d="M707,-85.04C707,-100.37 707,-119.8 707,-119.8 707,-119.8 864.21,-119.8 864.21,-119.8"/>
<polygon fill="black" stroke="black" points="864.21,-123.3 874.21,-119.8 864.21,-116.3 864.21,-123.3"/>
</g>
<!-- LoginComponent -->
<g id="node7" class="node">
<title>LoginComponent</title>
<polygon fill="#ffffb3" stroke="black" points="628.28,-84.8 513.72,-84.8 513.72,-48.8 628.28,-48.8 628.28,-84.8"/>
<text text-anchor="middle" x="571" y="-62.6" font-family="Times,serif" font-size="14.00">LoginComponent</text>
</g>
<!-- LoginComponent&#45;&gt;AppModule -->
<g id="edge7" class="edge">
<title>LoginComponent&#45;&gt;AppModule</title>
<path fill="none" stroke="black" d="M571,-84.82C571,-102.17 571,-125.8 571,-125.8 571,-125.8 864.04,-125.8 864.04,-125.8"/>
<polygon fill="black" stroke="black" points="864.04,-129.3 874.04,-125.8 864.04,-122.3 864.04,-129.3"/>
</g>
<!-- NewComponentComponent -->
<g id="node8" class="node">
<title>NewComponentComponent</title>
<polygon fill="#ffffb3" stroke="black" points="495.59,-84.8 322.41,-84.8 322.41,-48.8 495.59,-48.8 495.59,-84.8"/>
<text text-anchor="middle" x="409" y="-62.6" font-family="Times,serif" font-size="14.00">NewComponentComponent</text>
</g>
<!-- NewComponentComponent&#45;&gt;AppModule -->
<g id="edge8" class="edge">
<title>NewComponentComponent&#45;&gt;AppModule</title>
<path fill="none" stroke="black" d="M409,-84.91C409,-104.14 409,-131.8 409,-131.8 409,-131.8 864.08,-131.8 864.08,-131.8"/>
<polygon fill="black" stroke="black" points="864.08,-135.3 874.08,-131.8 864.08,-128.3 864.08,-135.3"/>
</g>
<!-- SignupComponent -->
<g id="node9" class="node">
<title>SignupComponent</title>
<polygon fill="#ffffb3" stroke="black" points="304.51,-84.8 183.49,-84.8 183.49,-48.8 304.51,-48.8 304.51,-84.8"/>
<text text-anchor="middle" x="244" y="-62.6" font-family="Times,serif" font-size="14.00">SignupComponent</text>
</g>
<!-- SignupComponent&#45;&gt;AppModule -->
<g id="edge9" class="edge">
<title>SignupComponent&#45;&gt;AppModule</title>
<path fill="none" stroke="black" d="M244,-85.08C244,-106.12 244,-137.8 244,-137.8 244,-137.8 864.22,-137.8 864.22,-137.8"/>
<polygon fill="black" stroke="black" points="864.22,-141.3 874.22,-137.8 864.22,-134.3 864.22,-141.3"/>
</g>
<!-- UserDetailComponent -->
<g id="node10" class="node">
<title>UserDetailComponent</title>
<polygon fill="#ffffb3" stroke="black" points="165.97,-84.8 24.03,-84.8 24.03,-48.8 165.97,-48.8 165.97,-84.8"/>
<text text-anchor="middle" x="95" y="-62.6" font-family="Times,serif" font-size="14.00">UserDetailComponent</text>
</g>
<!-- UserDetailComponent&#45;&gt;AppModule -->
<g id="edge10" class="edge">
<title>UserDetailComponent&#45;&gt;AppModule</title>
<path fill="none" stroke="black" d="M95,-85.05C95,-107.82 95,-143.8 95,-143.8 95,-143.8 864.16,-143.8 864.16,-143.8"/>
<polygon fill="black" stroke="black" points="864.16,-147.3 874.16,-143.8 864.16,-140.3 864.16,-147.3"/>
</g>
<!-- AppComponent  -->
<g id="node14" class="node">
<title>AppComponent </title>
<polygon fill="#80b1d3" stroke="black" points="970.44,-214.8 861.56,-214.8 861.56,-178.8 970.44,-178.8 970.44,-214.8"/>
<text text-anchor="middle" x="916" y="-192.6" font-family="Times,serif" font-size="14.00">AppComponent </text>
</g>
<!-- AppModule&#45;&gt;AppComponent  -->
<g id="edge13" class="edge">
<title>AppModule&#45;&gt;AppComponent </title>
<path fill="none" stroke="black" stroke-dasharray="1,5" d="M916,-149.91C916,-149.91 916,-168.79 916,-168.79"/>
<polygon fill="black" stroke="black" points="912.5,-168.79 916,-178.79 919.5,-168.79 912.5,-168.79"/>
</g>
<!-- AngularMaterialModule -->
<g id="node12" class="node">
<title>AngularMaterialModule</title>
<polygon fill="#8dd3c7" stroke="black" points="1847.34,-84.8 1844.34,-88.8 1823.34,-88.8 1820.34,-84.8 1694.66,-84.8 1694.66,-48.8 1847.34,-48.8 1847.34,-84.8"/>
<text text-anchor="middle" x="1771" y="-62.6" font-family="Times,serif" font-size="14.00">AngularMaterialModule</text>
</g>
<!-- AngularMaterialModule&#45;&gt;AppModule -->
<g id="edge11" class="edge">
<title>AngularMaterialModule&#45;&gt;AppModule</title>
<path fill="none" stroke="black" d="M1771,-85.05C1771,-107.82 1771,-143.8 1771,-143.8 1771,-143.8 967.82,-143.8 967.82,-143.8"/>
<polygon fill="black" stroke="black" points="967.82,-140.3 957.82,-143.8 967.82,-147.3 967.82,-140.3"/>
</g>
<!-- AppRoutingModule -->
<g id="node13" class="node">
<title>AppRoutingModule</title>
<polygon fill="#8dd3c7" stroke="black" points="1676.27,-84.8 1673.27,-88.8 1652.27,-88.8 1649.27,-84.8 1547.73,-84.8 1547.73,-48.8 1676.27,-48.8 1676.27,-84.8"/>
<text text-anchor="middle" x="1612" y="-62.6" font-family="Times,serif" font-size="14.00">AppRoutingModule</text>
</g>
<!-- AppRoutingModule&#45;&gt;AppModule -->
<g id="edge12" class="edge">
<title>AppRoutingModule&#45;&gt;AppModule</title>
<path fill="none" stroke="black" d="M1612,-85.08C1612,-106.12 1612,-137.8 1612,-137.8 1612,-137.8 967.71,-137.8 967.71,-137.8"/>
<polygon fill="black" stroke="black" points="967.71,-134.3 957.71,-137.8 967.71,-141.3 967.71,-134.3"/>
</g>
</g>
</svg>
